<?xml version="1.0" encoding="UTF-8"?>
<svg width="1440px" height="480px" viewBox="0 0 1440 480" version="1.1" xmlns="http://www.w3.org/2000/svg" xmlns:xlink="http://www.w3.org/1999/xlink">
    <title>Artboard</title>
    <g id="grid-bkg" stroke="none" stroke-width="1" fill="none" fill-rule="evenodd">
        <g id="Column-Lines" transform="translate(79.000000, 0.000000)" stroke="#E5E5E5" stroke-width="3">
            <line x1="0.5" y1="0" x2="0.5" y2="480" id="Path"></line>
            <line x1="80.5" y1="0" x2="80.5" y2="480" id="Path"></line>
            <line x1="160.5" y1="0" x2="160.5" y2="480" id="Path"></line>
            <line x1="240.5" y1="0" x2="240.5" y2="480" id="Path"></line>
            <line x1="320.5" y1="0" x2="320.5" y2="480" id="Path"></line>
            <line x1="401.5" y1="0" x2="401.5" y2="480" id="Path"></line>
            <line x1="481.5" y1="0" x2="481.5" y2="480" id="Path"></line>
            <line x1="561.5" y1="0" x2="561.5" y2="480" id="Path"></line>
            <line x1="641.5" y1="0" x2="641.5" y2="480" id="Path"></line>
            <line x1="721.5" y1="0" x2="721.5" y2="480" id="Path"></line>
            <line x1="801.5" y1="0" x2="801.5" y2="480" id="Path"></line>
            <line x1="881.5" y1="0" x2="881.5" y2="480" id="Path"></line>
            <line x1="961.5" y1="0" x2="961.5" y2="480" id="Path"></line>
            <line x1="1041.5" y1="0" x2="1041.5" y2="480" id="Path"></line>
            <line x1="1121.5" y1="0" x2="1121.5" y2="480" id="Path"></line>
            <line x1="1201.5" y1="0" x2="1201.5" y2="480" id="Path"></line>
            <line x1="1281.5" y1="0" x2="1281.5" y2="480" id="Path"></line>
        </g>
        <g id="Row-Lines" transform="translate(-1.500000, 79.500000)" stroke="#979797" stroke-linecap="square" stroke-width="2">
            <line x1="2" y1="160.5" x2="1443" y2="160.5" id="Line"></line>
            <line x1="-3.12467066e-16" y1="80.5" x2="1441" y2="80.5" id="Line"></line>
            <line x1="1" y1="0.5" x2="1442" y2="0.5" id="Line"></line>
            <line x1="-3.12467066e-16" y1="240.5" x2="1441" y2="240.5" id="Line"></line>
            <line x1="1.5" y1="320.5" x2="1442.5" y2="320.5" id="Line"></line>
        </g>
        <g id="Artboard"></g>
    </g>
</svg>